<svg width="101" height="100" viewBox="0 0 101 100" fill="none" xmlns="http://www.w3.org/2000/svg">
<g clip-path="url(#clip0_4036_22852)">
<rect x="0.5" width="100" height="100" rx="50" fill="white"/>
<mask id="mask0_4036_22852" style="mask-type:alpha" maskUnits="userSpaceOnUse" x="0" y="0" width="101" height="100">
<path d="M50.5 100C78.1142 100 100.5 77.6142 100.5 50C100.5 22.3858 78.1142 0 50.5 0C22.8858 0 0.5 22.3858 0.5 50C0.5 77.6142 22.8858 100 50.5 100Z" fill="white"/>
</mask>
<g mask="url(#mask0_4036_22852)">
<path d="M39.8974 63.3082C39.9536 63.3619 40.005 63.4204 40.0509 63.483C41.1238 64.6871 42.2843 65.6745 43.5018 66.445C45.6402 67.7983 47.9566 68.475 50.269 68.475C52.5817 68.475 54.898 67.7982 57.0364 66.445C58.254 65.6743 59.4146 64.687 60.4875 63.4828C60.5333 63.4203 60.5846 63.3618 60.6408 63.3081C62.458 61.2167 64.0142 58.4922 65.1547 55.1334C63.4348 55.4869 61.5468 55.7635 59.5541 55.9639C56.5057 56.2703 53.2285 56.4237 49.9781 56.4237C46.7277 56.4237 43.4504 56.2703 40.4019 55.9639C38.6473 55.7875 36.9741 55.5519 35.4252 55.2569C36.5618 58.5592 38.1025 61.2424 39.8974 63.3084V63.3082ZM73.1083 73.1242C76.6747 73.5574 79.9756 74.8837 82.7781 76.8713C85.5802 78.8585 87.8836 81.5047 89.456 84.5775C80.291 95.955 66.247 103.237 50.5 103.237C34.753 103.237 20.7089 95.9548 11.5439 84.5773C13.1164 81.5046 15.4198 78.8585 18.2218 76.8715C20.8772 74.9884 23.9796 73.6987 27.3314 73.1998L32.7858 69.022L32.7876 69.0244L32.8114 69.0067C33.3933 68.583 34.2086 68.7112 34.6322 69.2931C34.9774 69.7667 35.3434 70.2171 35.7296 70.6446C36.1468 69.7661 36.5081 68.8575 36.8118 67.9247C37.1611 66.8516 37.4301 65.7554 37.6156 64.6452C35.4776 62.0647 33.6915 58.708 32.4725 54.5776C28.2935 53.4227 25.5691 51.6991 25.5691 49.3812V41.6711L25.5186 41.6217L25.5135 41.6166C24.9166 41.0197 24.546 40.1967 24.546 39.2923V29.9865C24.546 29.082 24.9167 28.259 25.5135 27.662L25.5186 27.6569C26.1155 27.0601 26.9386 26.6895 27.843 26.6895H28.3867C28.613 22.6291 30.3652 18.9595 33.0756 16.2491C35.9841 13.3406 39.9975 11.5352 44.4126 11.5352H55.5435C59.9589 11.5352 63.9721 13.3406 66.8805 16.2491C69.5909 18.9595 71.3431 22.6292 71.5693 26.6895H72.113C73.021 26.6895 73.8458 27.0602 74.4425 27.6569C75.0394 28.2539 75.41 29.0787 75.41 29.9865V39.2923C75.41 40.1967 75.0393 41.0197 74.4426 41.6166L74.4375 41.6217L74.3871 41.671V49.3812C74.3871 51.5795 71.9367 53.2433 68.1194 54.3943C66.8993 58.6085 65.0924 62.0267 62.923 64.6452C63.1084 65.7555 63.3773 66.8516 63.7267 67.9247C64.0304 68.8575 64.3917 69.7661 64.809 70.6446C65.1952 70.2169 65.5611 69.7668 65.9065 69.2932C66.3302 68.7114 67.1453 68.5831 67.7272 69.0068L67.751 69.0246L67.7528 69.0221L73.1086 73.1244L73.1083 73.1242ZM30.0828 74.3833C32.4929 77.212 35.3796 79.5394 38.659 81.4529C40.9127 82.7681 43.3468 83.8871 45.9348 84.8389L44.593 83.3642L44.594 83.3633C44.2828 83.0206 44.1638 82.5227 44.327 82.0548L45.4133 78.9483C42.9569 78.341 40.7117 77.4817 38.709 76.3346C36.6652 75.164 34.8683 73.6922 33.3492 71.8813L30.0827 74.3833H30.0828ZM81.2643 78.9991C78.9074 77.3276 76.1483 76.19 73.1682 75.7662C70.5051 78.9747 67.303 81.588 63.6606 83.7135C59.851 85.9364 55.5459 87.6283 50.8618 88.9133C50.7146 88.956 50.5589 88.973 50.4007 88.9607C50.2098 88.98 50.0159 88.957 49.8337 88.893C45.1638 87.6065 40.864 85.9085 37.0489 83.6737C33.4371 81.5579 30.2634 78.967 27.6248 75.797C24.724 76.2433 22.038 77.3662 19.7356 78.9991C17.364 80.681 15.398 82.9053 14.021 85.4878C18.4732 90.5197 23.9503 94.6246 30.1252 97.4743C36.319 100.333 43.2207 101.927 50.5 101.927C57.7794 101.927 64.6809 100.333 70.8747 97.4743C77.0499 94.6246 82.5266 90.5197 86.9791 85.4877C85.602 82.9051 83.6361 80.681 81.2644 78.9991H81.2643ZM53.3044 76.6871C55.9892 76.1336 58.413 75.2765 60.5303 74.0638C61.3414 73.5992 62.1064 73.0825 62.8229 72.5109C62.1892 71.2858 61.6605 70.022 61.2407 68.7328C61.0467 68.1368 60.8748 67.533 60.7254 66.9226C59.9853 67.5773 59.2172 68.1548 58.4276 68.6544C55.8579 70.2807 53.0652 71.0939 50.269 71.0939C47.473 71.0939 44.68 70.2807 42.1106 68.6544C41.321 68.1548 40.5529 67.5772 39.8128 66.9226C39.6634 67.533 39.4914 68.1368 39.2975 68.7329C38.8777 70.0221 38.3489 71.2858 37.7153 72.5109C38.4317 73.0825 39.1969 73.5992 40.008 74.0638C42.1254 75.2766 44.549 76.1336 47.2339 76.6871H53.3044ZM54.4765 84.9704C57.2258 83.9823 59.801 82.811 62.1699 81.4234C65.3786 79.5438 68.2132 77.2607 70.5943 74.4897L67.1889 71.8813C65.67 73.692 63.8731 75.1639 61.8293 76.3346C59.8266 77.4817 57.5816 78.341 55.1249 78.9483L56.1876 81.987C56.3734 82.4397 56.2964 82.9784 55.9453 83.3642C55.4578 83.8999 54.9675 84.4351 54.4765 84.9704ZM50.2691 79.3058H48.0539L47.049 82.1794L50.2691 85.7184L53.4893 82.1794L52.4844 79.3058H50.2691ZM68.9115 26.2766C68.6006 23.1036 67.1728 20.2443 65.0289 18.1004C62.5938 15.6653 59.2358 14.1537 55.5434 14.1537H44.4125C40.7199 14.1537 37.3619 15.6653 34.9269 18.1004C32.783 20.2443 31.3552 23.1036 31.0444 26.2766H68.9115ZM65.9583 52.3807C66.6708 49.5033 67.1063 46.2401 67.1901 42.589H33.3481C33.4332 46.2932 33.8798 49.5985 34.6108 52.5062C36.3915 52.8559 38.4482 53.1435 40.6576 53.3656C43.5699 53.6583 46.7609 53.8048 49.9781 53.8048C53.1954 53.8048 56.3864 53.6582 59.2984 53.3656C61.7665 53.1174 64.0435 52.7877 65.9583 52.3807ZM71.7681 49.3811V42.589H69.8098C69.7367 45.8855 69.3875 48.8967 68.8107 51.6226C70.6629 50.9946 71.7681 50.2446 71.7681 49.3811ZM28.1878 42.589V49.3811C28.1878 50.3377 29.544 51.1551 31.7702 51.8216C31.1681 49.0435 30.8033 45.966 30.7284 42.589H28.1878ZM72.1128 29.308H63.0343L59.25 39.9703H68.5148H72.1128H72.1216C72.3054 39.9679 72.4723 39.8926 72.5934 39.7727C72.7153 39.6495 72.791 39.4794 72.791 39.2921V29.9864C72.791 29.8012 72.7141 29.6317 72.5908 29.5083C72.4673 29.3848 72.298 29.3082 72.1128 29.3082V29.308ZM60.2605 29.308H39.6952L43.4795 39.9703H56.4762L60.2605 29.308ZM36.9214 29.308H27.8429C27.6556 29.308 27.4854 29.3838 27.3623 29.5056C27.2404 29.6288 27.1647 29.799 27.1647 29.9863V39.292C27.1647 39.4793 27.2404 39.6494 27.3623 39.7725C27.4836 39.8924 27.6504 39.9678 27.8341 39.9701H27.8429H32.0234H40.7057L36.9214 29.3079V29.308Z" fill="#EBEBEB"/>
</g>
</g>
<defs>
<clipPath id="clip0_4036_22852">
<rect x="0.5" width="100" height="100" rx="50" fill="white"/>
</clipPath>
</defs>
</svg>
