<svg width="24" height="24" viewBox="0 0 24 24" fill="none" xmlns="http://www.w3.org/2000/svg">
<mask id="path-1-inside-1_2420_29564" fill="white">
<path d="M5.3335 9.08398L11.6412 14.7771C11.6872 14.8213 11.7428 14.8566 11.8046 14.8807C11.8663 14.9049 11.9329 14.9173 12.0002 14.9173C12.0674 14.9173 12.134 14.9049 12.1957 14.8807C12.2575 14.8566 12.3131 14.8213 12.3591 14.7771L18.6668 9.08398"/>
</mask>
<path d="M6.67352 7.59929C5.85355 6.85921 4.58888 6.92398 3.8488 7.74396C3.10872 8.56393 3.17349 9.8286 3.99347 10.5687L6.67352 7.59929ZM11.6412 14.7771L13.0275 13.3355C13.0123 13.3209 12.9969 13.3065 12.9812 13.2924L11.6412 14.7771ZM12.0002 14.9173V12.9173V14.9173ZM12.3591 14.7771L11.0191 13.2924C11.0034 13.3065 10.988 13.3209 10.9728 13.3355L12.3591 14.7771ZM20.0069 10.5687C20.8268 9.8286 20.8916 8.56393 20.1515 7.74396C19.4114 6.92398 18.1468 6.85921 17.3268 7.59929L20.0069 10.5687ZM3.99347 10.5687L10.3012 16.2618L12.9812 13.2924L6.67352 7.59929L3.99347 10.5687ZM10.2549 16.2186C10.4977 16.4522 10.7793 16.6274 11.0767 16.7436L12.5324 13.0179C12.7063 13.0858 12.8768 13.1905 13.0275 13.3355L10.2549 16.2186ZM11.0767 16.7436C11.3739 16.8597 11.6876 16.9173 12.0002 16.9173L12.0002 12.9173C12.1781 12.9173 12.3587 12.95 12.5324 13.0179L11.0767 16.7436ZM12.0002 16.9173C12.3127 16.9173 12.6264 16.8597 12.9236 16.7436L11.4679 13.0179C11.6416 12.95 11.8222 12.9173 12.0002 12.9173L12.0002 16.9173ZM12.9236 16.7436C13.221 16.6274 13.5026 16.4522 13.7455 16.2186L10.9728 13.3355C11.1236 13.1905 11.294 13.0858 11.4679 13.0179L12.9236 16.7436ZM13.6992 16.2618L20.0069 10.5687L17.3268 7.59929L11.0191 13.2924L13.6992 16.2618Z" fill="black" mask="url(#path-1-inside-1_2420_29564)"/>
</svg>
