<svg width="20" height="20" viewBox="0 0 20 20" fill="none" xmlns="http://www.w3.org/2000/svg">
<path d="M18.2187 10.7266L12.2422 12.9688C12.2437 14.0043 11.9381 15.0171 11.3638 15.8789C10.7896 16.7408 9.97266 17.4129 9.01634 17.8102C8.06002 18.2076 7.00731 18.3124 5.99143 18.1113C4.97555 17.9102 4.04214 17.4123 3.30932 16.6806C2.5765 15.9489 2.07719 15.0162 1.87459 14.0006C1.67199 12.985 1.77519 11.9322 2.17113 10.9753C2.56708 10.0184 3.23798 9.20039 4.09894 8.62488C4.95989 8.04938 5.97221 7.74219 7.00781 7.74219H9.21875V10L12.2109 9.21875V7.74219H18.1875L18.2187 10.7266Z" stroke="#0055E9" stroke-width="2" stroke-miterlimit="10"/>
<path d="M10.75 1.01562V3.25781" stroke="#0055E9" stroke-width="2" stroke-miterlimit="10"/>
<path d="M6.25781 2.875L7.84375 4.46094" stroke="#0055E9" stroke-width="2" stroke-miterlimit="10"/>
<path d="M15.2422 2.875L13.6562 4.46094" stroke="#0055E9" stroke-width="2" stroke-miterlimit="10"/>
</svg>
