<svg width="20" height="20" viewBox="0 0 20 20" fill="none" xmlns="http://www.w3.org/2000/svg">
<path fill-rule="evenodd" clip-rule="evenodd" d="M12.0872 12.0872C12.516 11.6584 13.2113 11.6584 13.6401 12.0872L19.6793 18.1264C20.1081 18.5553 20.1081 19.2505 19.6793 19.6793C19.2505 20.1081 18.5553 20.1081 18.1264 19.6793L12.0872 13.6401C11.6584 13.2113 11.6584 12.516 12.0872 12.0872Z" fill="white"/>
<path fill-rule="evenodd" clip-rule="evenodd" d="M7.64706 2.18487C4.63038 2.18487 2.18487 4.63038 2.18487 7.64706C2.18487 10.6637 4.63038 13.1092 7.64706 13.1092C10.6637 13.1092 13.1092 10.6637 13.1092 7.64706C13.1092 4.63038 10.6637 2.18487 7.64706 2.18487ZM0 7.64706C0 3.42371 3.42371 0 7.64706 0C11.8704 0 15.2941 3.42371 15.2941 7.64706C15.2941 11.8704 11.8704 15.2941 7.64706 15.2941C3.42371 15.2941 0 11.8704 0 7.64706Z" fill="white"/>
</svg>
