<svg width="24" height="24" viewBox="0 0 24 24" fill="none" xmlns="http://www.w3.org/2000/svg">
<mask id="path-1-inside-1_4006_25951" fill="white">
<path d="M4 8.5L11.5692 15.3317C11.6245 15.3848 11.6912 15.4272 11.7653 15.4561C11.8394 15.4851 11.9193 15.5 12 15.5C12.0807 15.5 12.1606 15.4851 12.2347 15.4561C12.3088 15.4272 12.3755 15.3848 12.4308 15.3317L20 8.5"/>
</mask>
<path d="M5.34003 7.0153C4.52005 6.27523 3.25538 6.34 2.5153 7.15997C1.77523 7.97995 1.84 9.24462 2.65997 9.9847L5.34003 7.0153ZM11.5692 15.3317L12.9556 13.8901C12.9404 13.8755 12.9249 13.8611 12.9093 13.847L11.5692 15.3317ZM12 15.5L12 13.5L12 15.5ZM12.4308 15.3317L11.0907 13.847C11.0751 13.8611 11.0596 13.8755 11.0444 13.8901L12.4308 15.3317ZM21.34 9.9847C22.16 9.24462 22.2248 7.97995 21.4847 7.15997C20.7446 6.34 19.4799 6.27523 18.66 7.0153L21.34 9.9847ZM2.65997 9.9847L10.2292 16.8164L12.9093 13.847L5.34003 7.0153L2.65997 9.9847ZM10.1829 16.7732C10.435 17.0156 10.7277 17.198 11.0374 17.319L12.4932 13.5933C12.6547 13.6564 12.814 13.754 12.9556 13.8901L10.1829 16.7732ZM11.0374 17.319C11.347 17.4399 11.674 17.5 12 17.5L12 13.5C12.1645 13.5 12.3318 13.5302 12.4932 13.5933L11.0374 17.319ZM12 17.5C12.326 17.5 12.653 17.4399 12.9626 17.319L11.5068 13.5933C11.6682 13.5302 11.8355 13.5 12 13.5L12 17.5ZM12.9626 17.319C13.2723 17.198 13.565 17.0156 13.8171 16.7732L11.0444 13.8901C11.186 13.754 11.3453 13.6564 11.5068 13.5933L12.9626 17.319ZM13.7708 16.8164L21.34 9.9847L18.66 7.0153L11.0907 13.847L13.7708 16.8164Z" fill="#757575" mask="url(#path-1-inside-1_4006_25951)"/>
</svg>
